{"title":"Funny Pics Compilation Part 6","uid":15980534,"size":178163935,"categoryP":"video","categoryS":"other","magnet":"?xt=urn:btih:8eafd2e6fab31ac9f6f215cc67b9d33616baf612&amp;dn=Funny+Pics+Compilation+Part+6&amp;tr=udp%3A%2F%2Ftracker.leechers-paradise.org%3A6969&amp;tr=udp%3A%2F%2Fzer0day.ch%3A1337&amp;tr=udp%3A%2F%2Fopen.demonii.com%3A1337&amp;tr=udp%3A%2F%2Ftracker.coppersurfer.tk%3A6969&amp;tr=udp%3A%2F%2Fexodus.desync.com%3A6969","seeders":5,"leechers":3,"uploader":"nico1899","files":3,"time":1475890878,"description":"Funny Pics Compilation Part 6\r\n\r\nScreenshots\r\n    \nhttp://imgprix.com/video/funny-pics-compilation-part-6\r\n\r\nFormat                                   : MPEG-4\r\nFormat profile                           : Base Media / Version 2\r\nCodec ID                                 : mp42 (mp41/isom)\r\nFile size                                : 170 MiB\r\nDuration                                 : 9 min 33 s\r\nOverall bit rate                         : 2 485 kb/s\r\nEncoded date                             : UTC 2016-10-07 22:59:04\r\nTagged date                              : UTC 2016-10-07 22:59:04\r\n\r\nVideo\r\nID                                       : 1\r\nFormat                                   : AVC\r\nFormat/Info                              : Advanced Video Codec\r\nFormat profile                           :   \r\nFormat settings, CABAC                   : No\r\nFormat settings, ReFrames                : 2 frames\r\nFormat settings, GOP                     : M=1, N=30\r\nCodec ID                                 : avc1\r\nCodec ID/Info                            : Advanced Video Coding\r\nDuration                                 : 9 min 33 s\r\nSource duration                          : 9 min 33 s\r\nBit rate                                 : 2 289 kb/s\r\nWidth                                    : 1 920 pixels\r\nHeight                                   : 1 080 pixels\r\nDisplay aspect ratio                     : 16:9\r\nFrame rate mode                          : Constant\r\nFrame rate                               : 29.970 (29970/1000) FPS\r\nColor space                              : YUV\r\nChroma subsampling                       : 4:2:0\r\nBit depth                                : 8 bits\r\nScan type                                : Progressive\r\nBits/(Pixel*Frame)                       : 0.037\r\nStream size                              : 157 MiB (92%)\r\nSource stream size                       : 157 MiB (92%)\r\nEncoded date                             : UTC 2016-10-07 22:59:04\r\nTagged date                              : UTC 2016-10-07 22:59:04\r\nmdhd_Duration                            : 573573\r\n\r\nAudio\r\nID                                       : 2\r\nFormat                                   : AAC\r\nFormat/Info                              : Advanced Audio Codec\r\nFormat profile                           : LC\r\nCodec ID                                 : 40\r\nDuration                                 : 9 min 33 s\r\nBit rate mode                            : Constant\r\nBit rate                                 : 192 kb/s\r\nChannel(s)                               : 2 channels\r\nChannel positions                        : Front: L R\r\nSampling rate                            : 48.0 kHz\r\nFrame rate                               : 46.875 FPS (1024 spf)\r\nCompression mode                         : Lossy\r\nStream size                              : 13.2 MiB (8%)\r\nEncoded date                             : UTC 2016-10-07 22:59:04\r\nTagged date                              : UTC 2016-10-07 22:59:04\r\nmdhd_Duration                            : 573589","torrent":{"xt":"urn:btih:8eafd2e6fab31ac9f6f215cc67b9d33616baf612","amp;dn":"Funny+Pics+Compilation+Part+6","amp;tr":["udp%3A%2F%2Ftracker.leechers-paradise.org%3A6969","udp%3A%2F%2Fzer0day.ch%3A1337","udp%3A%2F%2Fopen.demonii.com%3A1337","udp%3A%2F%2Ftracker.coppersurfer.tk%3A6969","udp%3A%2F%2Fexodus.desync.com%3A6969"],"infoHash":"8eafd2e6fab31ac9f6f215cc67b9d33616baf612","infoHashBuffer":{"type":"Buffer","data":[142,175,210,230,250,179,26,201,246,242,21,204,103,185,211,54,22,186,246,18]},"announce":[],"urlList":[]}}